HIERARCHY
ROOT Hips
{
	OFFSET 0.000000 0.000000 0.000000
	CHANNELS 6 Xposition Yposition Zposition Zrotation Yrotation Xrotation 
	JOINT LHipJoint
	{
		OFFSET 0.000000 0.000000 0.000000
		CHANNELS 3 Zrotation Yrotation Xrotation
		JOINT LeftUpLeg
		{
			OFFSET 1.363060 -1.794630 0.839290
			CHANNELS 3 Zrotation Yrotation Xrotation
			JOINT LeftLeg
			{
				OFFSET 2.448110 -6.726130 0.000000
				CHANNELS 3 Zrotation Yrotation Xrotation
				JOINT LeftFoot
				{
					OFFSET 2.562200 -7.039590 0.000000
					CHANNELS 3 Zrotation Yrotation Xrotation
					JOINT LeftToeBase
					{
						OFFSET 0.157640 -0.433110 2.322550
						CHANNELS 3 Zrotation Yrotation Xrotation
						End Site
						{
							OFFSET 0.000000 0.000000 0.000000
						}
					}
				}
			}
		}
	}
	JOINT RHipJoint
	{
		OFFSET 0.000000 0.000000 0.000000
		CHANNELS 3 Zrotation Yrotation Xrotation
		JOINT RightUpLeg
		{
			OFFSET -1.305520 -1.794630 0.839290
			CHANNELS 3 Zrotation Yrotation Xrotation
			JOINT RightLeg
			{
				OFFSET -2.542530 -6.985550 0.000000
				CHANNELS 3 Zrotation Yrotation Xrotation
				JOINT RightFoot
				{
					OFFSET -2.568260 -7.056230 0.000000
					CHANNELS 3 Zrotation Yrotation Xrotation
					JOINT RightToeBase
					{
						OFFSET -0.164730 -0.452590 2.363150
						CHANNELS 3 Zrotation Yrotation Xrotation
						End Site
						{
							OFFSET 0.000000 0.000000 0.000000
						}
					}
				}
			}
		}
	}
	JOINT LowerBack
	{
		OFFSET 0.000000 0.000000 0.000000
		CHANNELS 3 Zrotation Yrotation Xrotation
		JOINT Spine
		{
			OFFSET 0.028270 2.035590 -0.193380
			CHANNELS 3 Zrotation Yrotation Xrotation
			JOINT Spine1
			{
				OFFSET 0.056720 2.048850 -0.042750
				CHANNELS 3 Zrotation Yrotation Xrotation
				JOINT Neck
				{
					OFFSET 0.000000 0.000000 0.000000
					CHANNELS 3 Zrotation Yrotation Xrotation
					JOINT Neck1
					{
						OFFSET -0.054170 1.746240 0.172020
						CHANNELS 3 Zrotation Yrotation Xrotation
						JOINT Head
						{
							OFFSET 0.104070 1.761360 -0.123970
							CHANNELS 3 Zrotation Yrotation Xrotation
							End Site
							{
								OFFSET 0.000000 0.000000 0.000000
							}
						}
					}
				}
				JOINT LeftShoulder
				{
					OFFSET 0.000000 0.000000 0.000000
					CHANNELS 3 Zrotation Yrotation Xrotation
					JOINT LeftArm
					{
						OFFSET 3.362410 1.200890 -0.311210
						CHANNELS 3 Zrotation Yrotation Xrotation
						JOINT LeftForeArm
						{
							OFFSET 4.983000 -0.000000 -0.000000
							CHANNELS 3 Zrotation Yrotation Xrotation
							JOINT LeftHand
							{
								OFFSET 3.483560 -0.000000 -0.000000
								CHANNELS 3 Zrotation Yrotation Xrotation
								JOINT LeftFingerBase
								{
									OFFSET 0.000000 0.000000 0.000000
									CHANNELS 3 Zrotation Yrotation Xrotation
									JOINT LeftHandIndex1
									{
										OFFSET 0.715260 -0.000000 -0.000000
										CHANNELS 3 Zrotation Yrotation Xrotation
										End Site
										{
											OFFSET 0.000000 0.000000 0.000000
										}
									}
								}
								JOINT LThumb
								{
									OFFSET 0.000000 0.000000 0.000000
									CHANNELS 3 Zrotation Yrotation Xrotation
									End Site
									{
										OFFSET 0.000000 0.000000 0.000000
									}
								}
							}
						}
					}
				}
				JOINT RightShoulder
				{
					OFFSET 0.000000 0.000000 0.000000
					CHANNELS 3 Zrotation Yrotation Xrotation
					JOINT RightArm
					{
						OFFSET -3.136600 1.374050 -0.404650
						CHANNELS 3 Zrotation Yrotation Xrotation
						JOINT RightForeArm
						{
							OFFSET -5.241900 -0.000000 -0.000000
							CHANNELS 3 Zrotation Yrotation Xrotation
							JOINT RightHand
							{
								OFFSET -3.444170 -0.000000 -0.000000
								CHANNELS 3 Zrotation Yrotation Xrotation
								JOINT RightFingerBase
								{
									OFFSET 0.000000 0.000000 0.000000
									CHANNELS 3 Zrotation Yrotation Xrotation
									JOINT RightHandIndex1
									{
										OFFSET -0.622530 -0.000000 -0.000000
										CHANNELS 3 Zrotation Yrotation Xrotation
										End Site
										{
											OFFSET 0.000000 0.000000 0.000000
										}
									}
								}
								JOINT RThumb
								{
									OFFSET 0.000000 0.000000 0.000000
									CHANNELS 3 Zrotation Yrotation Xrotation
									End Site
									{
										OFFSET 0.000000 0.000000 0.000000
									}
								}
							}
						}
					}
				}
			}
		}
	}
}
MOTION
Frames: 8
Frame Time: 0.008333
10.776684 18.043797 4.386500 176.853246 2.431128 -161.153053 11.136775 1.240294 -3.196050 -12.673081 -21.174620 -78.636117 17.662529 26.173703 85.422453 1.862886 -3.831912 -26.965176 3.109800 -10.870700 -31.845200 -14.185835 -2.759030 -2.038440 32.939497 17.005407 -13.552545 1.035825 -4.828575 12.371576 -1.068117 -1.479168 -20.205764 -3.244900 11.081300 -32.554400 -3.504246 -0.125257 -12.030222 1.170222 0.438445 -3.126877 -1.087781 -0.490638 14.785011 -7.874561 -3.833568 -4.779843 8.380936 -5.091461 28.276996 0.688700 -0.500100 6.852700 16.188671 -0.599673 0.966203 -104.861779 -0.523722 15.404317 12.628733 -14.911645 -2.115676 -1.535279 0.836404 4.340809 18.585881 -11.190862 -4.313800 -7.125000 0.000000 0.000000 -4.887500 17.411600 3.212800 -11.598246 0.732556 -0.091683 97.386138 2.157295 18.270011 -23.479230 35.591791 -9.450217 0.230924 3.529904 -6.097766 -11.004188 -47.822015 9.102100 7.125000 0.000000 0.000000 60.565800 -74.959900 -46.288500 
10.782273 18.039633 4.324699 176.827469 2.453197 -161.125426 11.147979 1.239802 -3.207139 -12.592608 -21.143706 -78.813097 17.154349 26.135845 84.101767 1.812465 -3.832616 -26.737437 3.012500 -10.715200 -31.325400 -14.180838 -2.746648 -2.031096 32.975676 17.203689 -13.444858 1.024094 -4.948095 12.704064 -1.109190 -1.664695 -20.631950 -3.187000 10.991800 -32.252200 -3.583554 -0.071453 -11.971718 1.142498 0.533913 -3.105384 -1.102861 -0.437054 14.715079 -8.135543 -2.044446 -4.749800 9.110341 -5.627090 27.985881 0.778000 -1.772700 6.790400 16.187185 -0.735903 1.036680 -104.761369 -0.700309 14.948646 12.524301 -14.729809 -2.065701 -1.514273 0.844066 4.581007 18.438772 -11.064825 -4.232900 -7.125000 0.000000 0.000000 -4.999300 17.553000 3.271300 -11.593889 0.726158 -0.036380 97.428526 2.332381 18.531687 -23.581408 35.664418 -9.506529 0.221645 3.544033 -5.979237 -10.743305 -48.234977 8.936000 7.125000 0.000000 0.000000 62.235400 -75.023600 -47.826000 
10.781615 18.034264 4.259612 176.812944 2.492087 -161.193893 11.147796 1.247775 -3.192568 -12.585511 -21.155540 -78.839462 16.649522 26.082085 82.791712 1.759305 -4.095132 -26.677974 2.416200 -9.683800 -27.958900 -14.158722 -2.763697 -2.063102 33.052788 17.029039 -13.166505 1.009326 -4.955927 12.827830 -1.146745 -1.575733 -20.894248 -3.108700 10.868900 -31.839000 -3.581716 -0.035270 -11.811389 1.117986 0.589432 -3.086935 -1.166365 -0.400749 14.680321 -8.115373 -2.097946 -4.674474 9.098402 -5.686131 27.818267 0.764000 -1.805600 6.718400 16.182697 -0.749628 1.039301 -104.715258 -0.724927 14.672627 12.496074 -14.685314 -2.049823 -1.517781 0.843266 4.652853 18.480113 -11.005128 -4.221100 -7.125000 0.000000 0.000000 -4.965900 17.615300 3.242500 -11.608390 0.722159 -0.041510 97.445709 2.379798 18.890952 -23.712288 35.788630 -9.580614 0.173362 3.545623 -5.994089 -9.969606 -48.530656 8.318500 7.125000 0.000000 0.000000 63.789000 -74.827300 -48.995500 
10.778657 18.029771 4.191128 176.755398 2.539107 -161.263572 11.141225 1.255603 -3.171067 -12.676241 -21.186571 -78.759393 16.167753 26.022193 81.536467 1.721522 -4.041557 -26.478792 2.362400 -9.583300 -27.637600 -14.133756 -2.786073 -2.100100 33.060597 16.805377 -12.854545 0.993636 -4.925452 12.868471 -1.177480 -1.382148 -21.048061 -3.132700 10.906900 -31.966400 -3.642393 -0.046051 -11.730594 1.105238 0.595280 -3.074600 -1.198512 -0.393674 14.649842 -7.863980 -1.936871 -4.315519 8.769528 -5.409856 27.632551 0.613400 -1.678000 6.554900 16.199252 -0.747650 1.058524 -104.758965 -0.582805 14.479772 12.522171 -14.732632 -2.058238 -1.534488 0.839121 4.688172 18.638299 -10.982714 -4.250100 -7.125000 0.000000 0.000000 -4.842800 17.632400 3.159700 -11.598410 0.725490 -0.028555 97.377055 2.404292 19.258037 -23.755511 35.822317 -9.599535 0.147258 3.526419 -6.053635 -9.487785 -48.265737 7.885500 7.125000 0.000000 0.000000 63.122900 -74.535100 -48.087500 
10.777671 18.026922 4.124068 176.692537 2.524401 -161.253569 11.133787 1.267238 -3.154320 -12.672887 -21.284345 -78.671025 15.668880 25.954308 80.230163 1.657817 -3.631640 -25.843102 2.691200 -10.177500 -29.553500 -14.113204 -2.794400 -2.129478 33.041658 16.668029 -12.668650 0.977145 -4.948292 13.008606 -1.210285 -1.293894 -21.269494 -3.204600 11.019100 -32.344500 -3.710679 -0.068094 -11.759818 1.087961 0.600822 -3.048882 -1.226107 -0.404426 14.776122 -7.937434 -2.030140 -4.687154 8.678272 -5.489241 28.124093 0.609700 -1.715000 6.806200 16.183355 -0.709618 1.056944 -104.721216 -0.657861 14.312036 12.485422 -14.669952 -2.039807 -1.545307 0.862906 4.867940 18.776720 -11.078478 -4.325700 -7.125000 0.000000 0.000000 -4.738400 17.500800 3.104800 -11.612031 0.762220 -0.033027 97.349481 2.519812 19.553419 -23.908199 35.978407 -9.697966 0.137025 3.532248 -6.167178 -9.489734 -48.479175 7.908400 7.125000 0.000000 0.000000 63.873100 -74.615600 -48.841100 
10.777232 18.023635 4.061720 176.651261 2.458290 -161.232637 11.124725 1.277847 -3.137249 -12.590992 -21.456680 -78.580743 15.203614 25.881219 79.010594 1.591776 -3.479988 -25.368648 2.448800 -9.744300 -28.152600 -14.094168 -2.799556 -2.159685 33.031207 16.512053 -12.582238 0.958304 -5.017560 13.247657 -1.243086 -1.316450 -21.531019 -3.217800 11.039600 -32.413400 -3.765572 -0.075973 -11.707988 1.079565 0.617766 -3.015687 -1.216836 -0.413076 14.896501 -8.160236 -2.225510 -5.261719 8.739398 -5.725712 28.723425 0.681200 -1.827800 7.156200 16.155555 -0.675262 1.047719 -104.654188 -0.841787 14.072302 12.405680 -14.536129 -2.004266 -1.545685 0.905431 5.211493 18.859263 -11.237257 -4.416100 -7.125000 0.000000 0.000000 -4.679900 17.291100 3.087800 -11.637333 0.805865 -0.046017 97.344071 2.574271 19.802585 -24.201472 36.268392 -9.885965 0.124260 3.523653 -6.223433 -9.366077 -48.550370 7.808800 7.125000 0.000000 0.000000 64.171100 -74.588800 -49.077500 
10.775370 18.017828 3.993783 176.626740 2.446774 -161.287039 11.116978 1.271668 -3.123418 -12.528358 -21.562701 -78.384697 14.798039 25.791298 77.948663 1.457451 -4.115748 -25.055132 1.517500 -7.779000 -22.044900 -14.068356 -2.814974 -2.181995 33.028683 16.345186 -12.505776 0.923193 -5.145122 13.647233 -1.286337 -1.248573 -21.847946 -3.108300 10.868400 -31.837400 -3.814474 -0.014684 -11.548197 1.070930 0.698631 -3.007738 -1.195312 -0.356770 14.762915 -7.955152 -1.994092 -4.382136 8.652560 -5.429653 27.765636 0.599100 -1.697200 6.609000 16.174039 -0.754955 1.077061 -104.639990 -0.771519 13.826228 12.359954 -14.478017 -1.987442 -1.542869 0.937284 5.541034 18.898978 -11.383079 -4.487500 -7.125000 0.000000 0.000000 -4.653900 17.110000 3.089000 -11.629529 0.749271 -0.032240 97.315816 2.405877 20.106191 -24.412464 36.458602 -10.016786 0.124443 3.500924 -6.312899 -9.349336 -48.249453 7.763800 7.125000 0.000000 0.000000 63.073500 -74.464500 -47.967300 
10.774603 18.010596 3.919053 176.601784 2.461629 -161.366339 11.104279 1.283759 -3.103234 -12.540419 -21.617679 -78.119624 14.400937 25.701361 76.899704 1.339757 -3.819303 -24.058103 2.061900 -8.993800 -25.776000 -14.036406 -2.826112 -2.217483 33.038754 16.115866 -12.396946 0.879629 -5.275925 14.076821 -1.344953 -1.055866 -22.235295 -3.112400 10.874700 -31.858600 -3.856720 0.021974 -11.487984 1.045047 0.773062 -2.983290 -1.219535 -0.330877 14.828794 -8.116644 -2.205721 -4.896710 8.748302 -5.763085 28.536408 0.663900 -1.853600 7.000200 16.153964 -0.707410 1.068279 -104.574726 -0.820558 13.523664 12.307058 -14.400516 -1.967265 -1.522156 0.979490 5.858457 18.801353 -11.608324 -4.555700 -7.125000 0.000000 0.000000 -4.737800 16.844300 3.172600 -11.648013 0.784659 -0.040802 97.322866 2.375220 20.405957 -24.548818 36.602209 -10.106787 0.121969 3.501381 -6.463910 -9.498942 -48.327261 7.895800 7.125000 0.000000 0.000000 63.239900 -74.551500 -48.208900 
